# xmcd
#
# Track frame offsets:
#	150
#	11212
#	23795
#	39970
#	53332
#	68935
#	82862
#	101350
#	115632
#	130435
#	138655
#	151775
#	167515
#	182730
#	196672
#	212587
#	225130
#	245005
#	255682
#
# Disc length: 3549
#
# Revision: 1
# Processed by: cddbd v1.5.1PL0 Copyright (c) Steve Scherf et al.
# Submitted via: CDex 1.51
# Normalized: r0:TRMNUM
#
DISCID=e70ddb13
DTITLE=Louis Armstrong - LOUIS ARMSTRONG [VOL1]
DYEAR=1900
DGENRE=Jazz
TTITLE0=HELLO DOLLY
TTITLE1=CABARET
TTITLE2=STARDUST
TTITLE3=ALL OF ME
TTITLE4=LA VIE EN ROSE
TTITLE5=C'ECT SI BON
TTITLE6=AIN'T MISBEHAVIN'
TTITLE7=ONLY YOU
TTITLE8=THE GIPSY
TTITLE9=ST,JAMES INFIRMARY
TTITLE10=BLUEBERRY HILL
TTITLE11=MACK THE KNIFE
TTITLE12=TIGER RAG
TTITLE13=A KISS TO BUILD A DREAM ON
TTITLE14=MEMORIES OF YOU
TTITLE15=RAMONA
TTITLE16=WHEN THE SAINTS GOMARCHIN' IN
TTITLE17=IT'S BEEN A LONG LONG TIME
TTITLE18=WHAT A WONDERFUL WORLD
EXTD=
EXTT0=
EXTT1=
EXTT2=
EXTT3=
EXTT4=
EXTT5=
EXTT6=
EXTT7=
EXTT8=
EXTT9=
EXTT10=
EXTT11=
EXTT12=
EXTT13=
EXTT14=
EXTT15=
EXTT16=
EXTT17=
EXTT18=
PLAYORDER=
